<svg xmlns="http://www.w3.org/2000/svg" width="22" height="34.86" viewBox="0 0 22 34.86"><g transform="translate(-917 -523)"><path d="M95,13.92c0,6.439-5,7.439-5,13.44,0,3.1-3.123,3.359-5.5,3.359-2.053,0-6.586-.779-6.586-3.361,0-6-4.914-7-4.914-13.438A11.214,11.214,0,0,1,84.083,3,11.068,11.068,0,0,1,95,13.92Z" transform="translate(844 520)" fill="#ffd983"/><path d="M88.167,35.36c0,.828-2.234,2.5-4.167,2.5s-4.167-1.672-4.167-2.5,2.233-.5,4.167-.5S88.167,34.532,88.167,35.36Z" transform="translate(844 520)" fill="#ccd6dd"/><path d="M88.707,13.153a1,1,0,0,0-1.414,0L84,16.446l-3.293-3.293a1,1,0,0,0-1.414,1.414L83,18.274V28.86a1,1,0,1,0,2,0V18.274l3.707-3.707A1,1,0,0,0,88.707,13.153Z" transform="translate(844 520)" fill="#ffcc4d"/><path d="M90,33.86a2,2,0,0,1-2,2H80a2,2,0,0,1-2-2v-6H90Z" transform="translate(844 520)" fill="#99aab5"/><path d="M78,34.86a1,1,0,0,1-.163-1.986l12-2a1,1,0,0,1,.328,1.972l-12,2A.927.927,0,0,1,78,34.86Zm0-4a1,1,0,0,1-.163-1.986l12-2a1,1,0,0,1,.328,1.972l-12,2A.927.927,0,0,1,78,30.86Z" transform="translate(844 520)" fill="#ccd6dd"/></g></svg>