<svg xmlns="http://www.w3.org/2000/svg" width="36" height="36" viewBox="0 0 36 36"><g transform="translate(-1038 -522)"><path d="M230,34a4,4,0,0,1-4,4H198a4,4,0,0,1-4-4V6a4,4,0,0,1,4-4h28a4,4,0,0,1,4,4Z" transform="translate(844 520)" fill="#77b255"/><path d="M223.28,8.362a2.5,2.5,0,0,0-3.458.736L208.936,25.877l-5.029-4.65a2.5,2.5,0,1,0-3.394,3.671l7.209,6.666a2.5,2.5,0,0,0,3.795-.474c.332-.506,12.5-19.27,12.5-19.27A2.5,2.5,0,0,0,223.28,8.362Z" transform="translate(844 520)" fill="#fff"/></g></svg>